<mxfile host="app.diagrams.net" modified="2022-11-22T00:33:46.451Z" agent="5.0 (Windows NT 10.0; Win64; x64) AppleWebKit/537.36 (KHTML, like Gecko) Chrome/107.0.0.0 Safari/537.36" etag="MBtuhNqzYJ3wa5G6UAoN" version="20.5.3" type="github">
  <diagram id="6v5yYC2GlbZG30RdDHjr" name="Página-1">
    <mxGraphModel dx="868" dy="482" grid="1" gridSize="10" guides="1" tooltips="1" connect="1" arrows="1" fold="1" page="1" pageScale="1" pageWidth="827" pageHeight="1169" math="0" shadow="0">
      <root>
        <mxCell id="0" />
        <mxCell id="1" parent="0" />
        <mxCell id="MprWjscymkKGWo3uFzGC-1" value="&lt;font style=&quot;vertical-align: inherit;&quot;&gt;&lt;font style=&quot;vertical-align: inherit;&quot;&gt;SEXO?&lt;br&gt;&lt;/font&gt;&lt;/font&gt;" style="rounded=1;whiteSpace=wrap;html=1;" parent="1" vertex="1">
          <mxGeometry x="320" y="105" width="120" height="60" as="geometry" />
        </mxCell>
        <mxCell id="MprWjscymkKGWo3uFzGC-7" value="Entrada" style="text;html=1;align=center;verticalAlign=middle;resizable=0;points=[];autosize=1;strokeColor=none;fillColor=none;" parent="1" vertex="1">
          <mxGeometry x="30" y="270" width="70" height="30" as="geometry" />
        </mxCell>
        <mxCell id="MprWjscymkKGWo3uFzGC-15" value="repuesta&amp;nbsp;&lt;br&gt;" style="text;html=1;align=center;verticalAlign=middle;resizable=0;points=[];autosize=1;strokeColor=none;fillColor=none;" parent="1" vertex="1">
          <mxGeometry x="30" y="410" width="70" height="30" as="geometry" />
        </mxCell>
        <mxCell id="MprWjscymkKGWo3uFzGC-22" value="" style="edgeStyle=orthogonalEdgeStyle;rounded=0;orthogonalLoop=1;jettySize=auto;html=1;fontFamily=Helvetica;fontSize=12;fontColor=default;" parent="1" source="MprWjscymkKGWo3uFzGC-4" target="MprWjscymkKGWo3uFzGC-19" edge="1">
          <mxGeometry relative="1" as="geometry" />
        </mxCell>
        <mxCell id="MprWjscymkKGWo3uFzGC-4" value="económicos&lt;br&gt;credenciales&lt;br&gt;horario&lt;br&gt;turno" style="rounded=0;whiteSpace=wrap;html=1;" parent="1" vertex="1">
          <mxGeometry x="100" y="415" width="120" height="80" as="geometry" />
        </mxCell>
        <mxCell id="MprWjscymkKGWo3uFzGC-28" value="" style="edgeStyle=orthogonalEdgeStyle;rounded=0;orthogonalLoop=1;jettySize=auto;html=1;fontFamily=Helvetica;fontSize=12;fontColor=default;" parent="1" source="MprWjscymkKGWo3uFzGC-17" target="MprWjscymkKGWo3uFzGC-4" edge="1">
          <mxGeometry relative="1" as="geometry" />
        </mxCell>
        <mxCell id="MprWjscymkKGWo3uFzGC-17" value="seleccionar Ruta" style="shape=parallelogram;perimeter=parallelogramPerimeter;whiteSpace=wrap;html=1;fixedSize=1;rounded=0;strokeColor=default;fontFamily=Helvetica;fontSize=12;fontColor=default;fillColor=default;" parent="1" vertex="1">
          <mxGeometry x="100" y="290" width="120" height="60" as="geometry" />
        </mxCell>
        <mxCell id="MprWjscymkKGWo3uFzGC-27" value="" style="edgeStyle=orthogonalEdgeStyle;rounded=0;orthogonalLoop=1;jettySize=auto;html=1;fontFamily=Helvetica;fontSize=12;fontColor=default;" parent="1" source="MprWjscymkKGWo3uFzGC-19" target="MprWjscymkKGWo3uFzGC-25" edge="1">
          <mxGeometry relative="1" as="geometry" />
        </mxCell>
        <mxCell id="MprWjscymkKGWo3uFzGC-19" value="" style="shape=sortShape;perimeter=rhombusPerimeter;whiteSpace=wrap;html=1;rounded=0;strokeColor=default;fontFamily=Helvetica;fontSize=12;fontColor=default;fillColor=default;" parent="1" vertex="1">
          <mxGeometry x="120" y="540" width="80" height="80" as="geometry" />
        </mxCell>
        <mxCell id="MprWjscymkKGWo3uFzGC-20" value="ordenar" style="text;html=1;align=center;verticalAlign=middle;resizable=0;points=[];autosize=1;strokeColor=none;fillColor=none;fontSize=12;fontFamily=Helvetica;fontColor=default;" parent="1" vertex="1">
          <mxGeometry x="35" y="540" width="60" height="30" as="geometry" />
        </mxCell>
        <mxCell id="MprWjscymkKGWo3uFzGC-42" value="" style="edgeStyle=orthogonalEdgeStyle;rounded=0;orthogonalLoop=1;jettySize=auto;html=1;fontFamily=Helvetica;fontSize=12;fontColor=default;" parent="1" source="MprWjscymkKGWo3uFzGC-25" target="MprWjscymkKGWo3uFzGC-41" edge="1">
          <mxGeometry relative="1" as="geometry" />
        </mxCell>
        <mxCell id="MprWjscymkKGWo3uFzGC-25" value="DEVUELVE LAS CREDECIALES CONFORME AL ECONOMICO CLASIFICANDO POR TURNO" style="shape=process;whiteSpace=wrap;html=1;backgroundOutline=1;rounded=0;strokeColor=default;fontFamily=Helvetica;fontSize=12;fontColor=default;fillColor=default;" parent="1" vertex="1">
          <mxGeometry x="80" y="680" width="210" height="130" as="geometry" />
        </mxCell>
        <mxCell id="MprWjscymkKGWo3uFzGC-29" value="proceso" style="text;html=1;align=center;verticalAlign=middle;resizable=0;points=[];autosize=1;strokeColor=none;fillColor=none;fontSize=12;fontFamily=Helvetica;fontColor=default;" parent="1" vertex="1">
          <mxGeometry x="30" y="640" width="70" height="30" as="geometry" />
        </mxCell>
        <mxCell id="MprWjscymkKGWo3uFzGC-30" value="" style="strokeWidth=2;html=1;shape=mxgraph.flowchart.database;whiteSpace=wrap;rounded=0;strokeColor=default;fontFamily=Helvetica;fontSize=12;fontColor=default;fillColor=default;" parent="1" vertex="1">
          <mxGeometry x="120" y="30" width="60" height="60" as="geometry" />
        </mxCell>
        <mxCell id="MprWjscymkKGWo3uFzGC-31" value="" style="strokeWidth=2;html=1;shape=mxgraph.flowchart.document2;whiteSpace=wrap;size=0.25;rounded=0;strokeColor=default;fontFamily=Helvetica;fontSize=12;fontColor=default;fillColor=default;" parent="1" vertex="1">
          <mxGeometry x="200" y="40" width="100" height="60" as="geometry" />
        </mxCell>
        <mxCell id="MprWjscymkKGWo3uFzGC-32" value="" style="verticalLabelPosition=bottom;verticalAlign=top;html=1;shape=mxgraph.flowchart.or;rounded=0;strokeColor=default;fontFamily=Helvetica;fontSize=12;fontColor=default;fillColor=default;" parent="1" vertex="1">
          <mxGeometry x="115" y="100" width="70" height="70" as="geometry" />
        </mxCell>
        <mxCell id="MprWjscymkKGWo3uFzGC-33" value="" style="strokeWidth=2;html=1;shape=mxgraph.flowchart.multi-document;whiteSpace=wrap;rounded=0;strokeColor=default;fontFamily=Helvetica;fontSize=12;fontColor=default;fillColor=default;" parent="1" vertex="1">
          <mxGeometry x="200" y="110" width="88" height="60" as="geometry" />
        </mxCell>
        <mxCell id="MprWjscymkKGWo3uFzGC-34" value="" style="verticalLabelPosition=bottom;verticalAlign=top;html=1;shape=process;whiteSpace=wrap;rounded=1;size=0.14;arcSize=6;strokeColor=default;fontFamily=Helvetica;fontSize=12;fontColor=default;fillColor=default;" parent="1" vertex="1">
          <mxGeometry x="330" y="30" width="100" height="60" as="geometry" />
        </mxCell>
        <mxCell id="MprWjscymkKGWo3uFzGC-36" value="" style="html=1;strokeWidth=2;shape=manualInput;whiteSpace=wrap;rounded=1;size=26;arcSize=11;strokeColor=default;fontFamily=Helvetica;fontSize=12;fontColor=default;fillColor=default;" parent="1" vertex="1">
          <mxGeometry x="460" y="100" width="100" height="60" as="geometry" />
        </mxCell>
        <mxCell id="MprWjscymkKGWo3uFzGC-37" value="" style="strokeWidth=2;html=1;shape=mxgraph.flowchart.direct_data;whiteSpace=wrap;rounded=0;strokeColor=default;fontFamily=Helvetica;fontSize=12;fontColor=default;fillColor=default;" parent="1" vertex="1">
          <mxGeometry x="460" y="20" width="100" height="60" as="geometry" />
        </mxCell>
        <mxCell id="MprWjscymkKGWo3uFzGC-39" value="" style="edgeStyle=orthogonalEdgeStyle;rounded=0;orthogonalLoop=1;jettySize=auto;html=1;fontFamily=Helvetica;fontSize=12;fontColor=default;" parent="1" source="MprWjscymkKGWo3uFzGC-38" target="MprWjscymkKGWo3uFzGC-17" edge="1">
          <mxGeometry relative="1" as="geometry" />
        </mxCell>
        <mxCell id="MprWjscymkKGWo3uFzGC-38" value="Inicio" style="strokeWidth=2;html=1;shape=mxgraph.flowchart.terminator;whiteSpace=wrap;rounded=0;strokeColor=default;fontFamily=Helvetica;fontSize=12;fontColor=default;fillColor=default;" parent="1" vertex="1">
          <mxGeometry x="110" y="190" width="100" height="60" as="geometry" />
        </mxCell>
        <mxCell id="MprWjscymkKGWo3uFzGC-40" value="" style="strokeWidth=2;html=1;shape=mxgraph.flowchart.terminator;whiteSpace=wrap;rounded=0;strokeColor=default;fontFamily=Helvetica;fontSize=12;fontColor=default;fillColor=default;" parent="1" vertex="1">
          <mxGeometry x="5" y="70" width="100" height="60" as="geometry" />
        </mxCell>
        <mxCell id="MprWjscymkKGWo3uFzGC-45" value="" style="edgeStyle=orthogonalEdgeStyle;rounded=0;orthogonalLoop=1;jettySize=auto;html=1;fontFamily=Helvetica;fontSize=12;fontColor=default;entryX=0;entryY=0.556;entryDx=0;entryDy=0;entryPerimeter=0;" parent="1" source="MprWjscymkKGWo3uFzGC-41" target="MprWjscymkKGWo3uFzGC-44" edge="1">
          <mxGeometry relative="1" as="geometry" />
        </mxCell>
        <mxCell id="MprWjscymkKGWo3uFzGC-41" value="genera hoja" style="strokeWidth=2;html=1;shape=mxgraph.flowchart.document2;whiteSpace=wrap;size=0.25;rounded=0;strokeColor=default;fontFamily=Helvetica;fontSize=12;fontColor=default;fillColor=default;" parent="1" vertex="1">
          <mxGeometry x="364" y="715" width="100" height="60" as="geometry" />
        </mxCell>
        <mxCell id="MprWjscymkKGWo3uFzGC-43" value="documento&lt;br&gt;" style="text;html=1;align=center;verticalAlign=middle;resizable=0;points=[];autosize=1;strokeColor=none;fillColor=none;fontSize=12;fontFamily=Helvetica;fontColor=default;" parent="1" vertex="1">
          <mxGeometry x="320" y="680" width="80" height="30" as="geometry" />
        </mxCell>
        <mxCell id="MprWjscymkKGWo3uFzGC-50" value="" style="edgeStyle=orthogonalEdgeStyle;rounded=0;orthogonalLoop=1;jettySize=auto;html=1;fontFamily=Helvetica;fontSize=12;fontColor=default;" parent="1" source="MprWjscymkKGWo3uFzGC-44" target="MprWjscymkKGWo3uFzGC-49" edge="1">
          <mxGeometry relative="1" as="geometry" />
        </mxCell>
        <mxCell id="MprWjscymkKGWo3uFzGC-44" value="seleccionas el itinerario y el lugar de presentación&amp;nbsp;" style="shape=parallelogram;perimeter=parallelogramPerimeter;whiteSpace=wrap;html=1;fixedSize=1;rounded=0;strokeColor=default;fontFamily=Helvetica;fontSize=12;fontColor=default;fillColor=default;" parent="1" vertex="1">
          <mxGeometry x="440" y="440" width="260" height="90" as="geometry" />
        </mxCell>
        <mxCell id="MprWjscymkKGWo3uFzGC-46" value="entrada" style="text;html=1;align=center;verticalAlign=middle;resizable=0;points=[];autosize=1;strokeColor=none;fillColor=none;fontSize=12;fontFamily=Helvetica;fontColor=default;" parent="1" vertex="1">
          <mxGeometry x="404" y="415" width="60" height="30" as="geometry" />
        </mxCell>
        <mxCell id="MprWjscymkKGWo3uFzGC-52" value="" style="edgeStyle=orthogonalEdgeStyle;rounded=0;orthogonalLoop=1;jettySize=auto;html=1;fontFamily=Helvetica;fontSize=12;fontColor=default;" parent="1" source="MprWjscymkKGWo3uFzGC-49" target="MprWjscymkKGWo3uFzGC-51" edge="1">
          <mxGeometry relative="1" as="geometry" />
        </mxCell>
        <mxCell id="MprWjscymkKGWo3uFzGC-49" value="DETERMINA ERROR CUÁNDO SE REPITE UNA CREDENCIAL O UN ECONOMICO" style="shape=process;whiteSpace=wrap;html=1;backgroundOutline=1;rounded=0;strokeColor=default;fontFamily=Helvetica;fontSize=12;fontColor=default;fillColor=default;" parent="1" vertex="1">
          <mxGeometry x="550" y="600" width="210" height="130" as="geometry" />
        </mxCell>
        <mxCell id="MprWjscymkKGWo3uFzGC-56" value="" style="edgeStyle=orthogonalEdgeStyle;rounded=0;orthogonalLoop=1;jettySize=auto;html=1;fontFamily=Helvetica;fontSize=12;fontColor=default;entryX=0.5;entryY=0;entryDx=0;entryDy=0;" parent="1" source="MprWjscymkKGWo3uFzGC-51" target="MprWjscymkKGWo3uFzGC-60" edge="1">
          <mxGeometry relative="1" as="geometry">
            <mxPoint x="510" y="940" as="targetPoint" />
          </mxGeometry>
        </mxCell>
        <mxCell id="MprWjscymkKGWo3uFzGC-57" value="" style="edgeStyle=orthogonalEdgeStyle;rounded=0;orthogonalLoop=1;jettySize=auto;html=1;fontFamily=Helvetica;fontSize=12;fontColor=default;" parent="1" source="MprWjscymkKGWo3uFzGC-51" edge="1">
          <mxGeometry relative="1" as="geometry">
            <mxPoint x="790" y="940" as="targetPoint" />
          </mxGeometry>
        </mxCell>
        <mxCell id="MprWjscymkKGWo3uFzGC-51" value="¿SE REPITE ALGUN ECONOMICO?" style="rhombus;whiteSpace=wrap;html=1;rounded=0;strokeColor=default;fontFamily=Helvetica;fontSize=12;fontColor=default;fillColor=default;" parent="1" vertex="1">
          <mxGeometry x="592.5" y="800" width="125" height="120" as="geometry" />
        </mxCell>
        <mxCell id="MprWjscymkKGWo3uFzGC-53" value="" style="ellipse;whiteSpace=wrap;html=1;rounded=0;strokeColor=default;fontFamily=Helvetica;fontSize=12;fontColor=default;fillColor=default;" parent="1" vertex="1">
          <mxGeometry x="670" y="80" width="80" height="80" as="geometry" />
        </mxCell>
        <mxCell id="MprWjscymkKGWo3uFzGC-63" value="" style="edgeStyle=orthogonalEdgeStyle;rounded=0;orthogonalLoop=1;jettySize=auto;html=1;fontFamily=Helvetica;fontSize=12;fontColor=default;" parent="1" target="MprWjscymkKGWo3uFzGC-62" edge="1">
          <mxGeometry relative="1" as="geometry">
            <mxPoint x="850" y="970" as="sourcePoint" />
          </mxGeometry>
        </mxCell>
        <mxCell id="MprWjscymkKGWo3uFzGC-58" value="SI" style="text;html=1;align=center;verticalAlign=middle;resizable=0;points=[];autosize=1;strokeColor=none;fillColor=none;fontSize=12;fontFamily=Helvetica;fontColor=default;" parent="1" vertex="1">
          <mxGeometry x="464" y="865" width="30" height="30" as="geometry" />
        </mxCell>
        <mxCell id="MprWjscymkKGWo3uFzGC-59" value="NO" style="text;html=1;align=center;verticalAlign=middle;resizable=0;points=[];autosize=1;strokeColor=none;fillColor=none;fontSize=12;fontFamily=Helvetica;fontColor=default;" parent="1" vertex="1">
          <mxGeometry x="810" y="865" width="40" height="30" as="geometry" />
        </mxCell>
        <mxCell id="MprWjscymkKGWo3uFzGC-104" value="" style="edgeStyle=orthogonalEdgeStyle;rounded=0;orthogonalLoop=1;jettySize=auto;html=1;fontFamily=Helvetica;fontSize=18;fontColor=default;" parent="1" source="MprWjscymkKGWo3uFzGC-60" target="MprWjscymkKGWo3uFzGC-94" edge="1">
          <mxGeometry relative="1" as="geometry" />
        </mxCell>
        <mxCell id="MprWjscymkKGWo3uFzGC-60" value="NO SE PUEDE ASIGNAR EL ECONÓMICO EN MAS DE UNA RUTA" style="rounded=0;whiteSpace=wrap;html=1;strokeColor=default;fontFamily=Helvetica;fontSize=12;fontColor=default;fillColor=default;" parent="1" vertex="1">
          <mxGeometry x="430" y="940" width="120" height="60" as="geometry" />
        </mxCell>
        <mxCell id="MprWjscymkKGWo3uFzGC-65" value="" style="edgeStyle=orthogonalEdgeStyle;rounded=0;orthogonalLoop=1;jettySize=auto;html=1;fontFamily=Helvetica;fontSize=12;fontColor=default;" parent="1" source="MprWjscymkKGWo3uFzGC-62" target="MprWjscymkKGWo3uFzGC-64" edge="1">
          <mxGeometry relative="1" as="geometry" />
        </mxCell>
        <mxCell id="MprWjscymkKGWo3uFzGC-69" value="" style="edgeStyle=orthogonalEdgeStyle;rounded=0;orthogonalLoop=1;jettySize=auto;html=1;fontFamily=Helvetica;fontSize=12;fontColor=default;" parent="1" source="MprWjscymkKGWo3uFzGC-62" target="MprWjscymkKGWo3uFzGC-66" edge="1">
          <mxGeometry relative="1" as="geometry" />
        </mxCell>
        <mxCell id="MprWjscymkKGWo3uFzGC-62" value="&lt;font style=&quot;font-size: 18px;&quot;&gt;ALGUN&amp;nbsp; OPERADOR ESTA ASIGNADO A MAS DE UNA UNIDAD&lt;/font&gt;" style="rhombus;whiteSpace=wrap;html=1;rounded=0;strokeColor=default;fontFamily=Helvetica;fontSize=12;fontColor=default;fillColor=default;direction=north;" parent="1" vertex="1">
          <mxGeometry x="890" y="1015" width="225" height="230" as="geometry" />
        </mxCell>
        <mxCell id="MprWjscymkKGWo3uFzGC-98" value="" style="edgeStyle=orthogonalEdgeStyle;rounded=0;orthogonalLoop=1;jettySize=auto;html=1;fontFamily=Helvetica;fontSize=12;fontColor=default;" parent="1" source="MprWjscymkKGWo3uFzGC-64" target="MprWjscymkKGWo3uFzGC-96" edge="1">
          <mxGeometry relative="1" as="geometry" />
        </mxCell>
        <mxCell id="MprWjscymkKGWo3uFzGC-64" value="FORMULA&amp;nbsp;" style="rounded=0;whiteSpace=wrap;html=1;strokeColor=default;fontFamily=Helvetica;fontSize=12;fontColor=default;fillColor=default;" parent="1" vertex="1">
          <mxGeometry x="650" y="1270" width="120" height="60" as="geometry" />
        </mxCell>
        <mxCell id="MprWjscymkKGWo3uFzGC-100" value="" style="edgeStyle=orthogonalEdgeStyle;rounded=0;orthogonalLoop=1;jettySize=auto;html=1;fontFamily=Helvetica;fontSize=18;fontColor=default;" parent="1" source="MprWjscymkKGWo3uFzGC-66" target="MprWjscymkKGWo3uFzGC-96" edge="1">
          <mxGeometry relative="1" as="geometry" />
        </mxCell>
        <mxCell id="MprWjscymkKGWo3uFzGC-66" value="ASIGNACIO DE ECONÓMICO Y RUTA" style="rounded=0;whiteSpace=wrap;html=1;strokeColor=default;fontFamily=Helvetica;fontSize=12;fontColor=default;fillColor=default;" parent="1" vertex="1">
          <mxGeometry x="1200" y="1270" width="120" height="60" as="geometry" />
        </mxCell>
        <mxCell id="MprWjscymkKGWo3uFzGC-75" value="SI" style="text;html=1;align=center;verticalAlign=middle;resizable=0;points=[];autosize=1;strokeColor=none;fillColor=none;fontSize=12;fontFamily=Helvetica;fontColor=default;" parent="1" vertex="1">
          <mxGeometry x="805" y="1075" width="30" height="30" as="geometry" />
        </mxCell>
        <mxCell id="MprWjscymkKGWo3uFzGC-76" value="NO" style="text;html=1;align=center;verticalAlign=middle;resizable=0;points=[];autosize=1;strokeColor=none;fillColor=none;fontSize=12;fontFamily=Helvetica;fontColor=default;" parent="1" vertex="1">
          <mxGeometry x="1130" y="1075" width="40" height="30" as="geometry" />
        </mxCell>
        <mxCell id="MprWjscymkKGWo3uFzGC-80" value="" style="edgeStyle=orthogonalEdgeStyle;rounded=0;orthogonalLoop=1;jettySize=auto;html=1;fontFamily=Helvetica;fontSize=12;fontColor=default;" parent="1" source="MprWjscymkKGWo3uFzGC-82" target="MprWjscymkKGWo3uFzGC-83" edge="1">
          <mxGeometry relative="1" as="geometry" />
        </mxCell>
        <mxCell id="MprWjscymkKGWo3uFzGC-81" value="" style="edgeStyle=orthogonalEdgeStyle;rounded=0;orthogonalLoop=1;jettySize=auto;html=1;fontFamily=Helvetica;fontSize=12;fontColor=default;" parent="1" source="MprWjscymkKGWo3uFzGC-82" edge="1">
          <mxGeometry relative="1" as="geometry">
            <mxPoint x="1290.090909090909" y="200" as="targetPoint" />
          </mxGeometry>
        </mxCell>
        <mxCell id="MprWjscymkKGWo3uFzGC-82" value="SE MARCA&amp;nbsp;" style="rhombus;whiteSpace=wrap;html=1;rounded=0;strokeColor=default;fontFamily=Helvetica;fontSize=12;fontColor=default;fillColor=default;" parent="1" vertex="1">
          <mxGeometry x="1030" y="80" width="150" height="80" as="geometry" />
        </mxCell>
        <mxCell id="MprWjscymkKGWo3uFzGC-86" style="edgeStyle=orthogonalEdgeStyle;rounded=0;orthogonalLoop=1;jettySize=auto;html=1;exitX=0.75;exitY=1;exitDx=0;exitDy=0;fontFamily=Helvetica;fontSize=12;fontColor=default;" parent="1" source="MprWjscymkKGWo3uFzGC-83" edge="1">
          <mxGeometry relative="1" as="geometry">
            <mxPoint x="949.5454545454543" y="280" as="targetPoint" />
          </mxGeometry>
        </mxCell>
        <mxCell id="MprWjscymkKGWo3uFzGC-83" value="" style="rounded=0;whiteSpace=wrap;html=1;strokeColor=default;fontFamily=Helvetica;fontSize=12;fontColor=default;fillColor=default;" parent="1" vertex="1">
          <mxGeometry x="860" y="190" width="120" height="60" as="geometry" />
        </mxCell>
        <mxCell id="MprWjscymkKGWo3uFzGC-84" value="SI" style="text;html=1;align=center;verticalAlign=middle;resizable=0;points=[];autosize=1;strokeColor=none;fillColor=none;fontSize=12;fontFamily=Helvetica;fontColor=default;" parent="1" vertex="1">
          <mxGeometry x="925" y="85" width="30" height="30" as="geometry" />
        </mxCell>
        <mxCell id="MprWjscymkKGWo3uFzGC-85" value="NO" style="text;html=1;align=center;verticalAlign=middle;resizable=0;points=[];autosize=1;strokeColor=none;fillColor=none;fontSize=12;fontFamily=Helvetica;fontColor=default;" parent="1" vertex="1">
          <mxGeometry x="1250" y="85" width="40" height="30" as="geometry" />
        </mxCell>
        <mxCell id="MprWjscymkKGWo3uFzGC-87" value="" style="rounded=0;whiteSpace=wrap;html=1;strokeColor=default;fontFamily=Helvetica;fontSize=12;fontColor=default;fillColor=default;" parent="1" vertex="1">
          <mxGeometry x="1230" y="200" width="120" height="60" as="geometry" />
        </mxCell>
        <mxCell id="MprWjscymkKGWo3uFzGC-89" value="GENERA EL ROL POR RUTA" style="strokeWidth=2;html=1;shape=mxgraph.flowchart.document2;whiteSpace=wrap;size=0.25;rounded=0;strokeColor=default;fontFamily=Helvetica;fontSize=12;fontColor=default;fillColor=default;" parent="1" vertex="1">
          <mxGeometry x="905" y="1470" width="160" height="120" as="geometry" />
        </mxCell>
        <mxCell id="MprWjscymkKGWo3uFzGC-94" value="REALIZAR CORRECCIÓN EN ECONÓMICO&amp;nbsp;" style="rounded=0;whiteSpace=wrap;html=1;strokeColor=default;fontFamily=Helvetica;fontSize=12;fontColor=default;fillColor=default;" parent="1" vertex="1">
          <mxGeometry x="430" y="1040" width="120" height="50" as="geometry" />
        </mxCell>
        <mxCell id="MprWjscymkKGWo3uFzGC-102" value="" style="edgeStyle=orthogonalEdgeStyle;rounded=0;orthogonalLoop=1;jettySize=auto;html=1;fontFamily=Helvetica;fontSize=18;fontColor=default;" parent="1" source="MprWjscymkKGWo3uFzGC-96" target="MprWjscymkKGWo3uFzGC-89" edge="1">
          <mxGeometry relative="1" as="geometry" />
        </mxCell>
        <mxCell id="MprWjscymkKGWo3uFzGC-96" value="GENERA LIBRO&lt;br&gt;&amp;nbsp;1" style="whiteSpace=wrap;html=1;rounded=0;strokeColor=default;fontFamily=Helvetica;fontSize=12;fontColor=default;fillColor=default;" parent="1" vertex="1">
          <mxGeometry x="925" y="1310" width="120" height="50" as="geometry" />
        </mxCell>
        <mxCell id="MprWjscymkKGWo3uFzGC-97" value="DOCUMENTO -&amp;nbsp;LIBRO1" style="text;html=1;align=center;verticalAlign=middle;resizable=0;points=[];autosize=1;strokeColor=none;fillColor=none;fontSize=12;fontFamily=Helvetica;fontColor=default;" parent="1" vertex="1">
          <mxGeometry x="810" y="1430" width="160" height="30" as="geometry" />
        </mxCell>
        <mxCell id="MprWjscymkKGWo3uFzGC-103" value="Asignar Bus" style="shape=process;whiteSpace=wrap;html=1;backgroundOutline=1;rounded=0;strokeColor=default;fontFamily=Helvetica;fontSize=18;fontColor=default;fillColor=default;" parent="1" vertex="1">
          <mxGeometry x="730" y="940" width="120" height="60" as="geometry" />
        </mxCell>
      </root>
    </mxGraphModel>
  </diagram>
</mxfile>
